<?xml version="1.0" standalone="no"?>
<!DOCTYPE svg PUBLIC "-//W3C//DTD SVG 1.1//EN" "http://www.w3.org/Graphics/SVG/1.1/DTD/svg11.dtd" >
<svg xmlns="http://www.w3.org/2000/svg">
<metadata>
Created by FontForge 20120731 at Tue Apr 28 15:59:21 2015
 By Ads
</metadata>
<defs>
<font id="iconfont" horiz-adv-x="1024" >
  <font-face 
    font-family="iconfont"
    font-weight="500"
    font-stretch="normal"
    units-per-em="1024"
    panose-1="2 0 6 3 0 0 0 0 0 0"
    ascent="812"
    descent="-212"
    x-height="792"
    bbox="-0.0588235 -212 1160 812"
    underline-thickness="50"
    underline-position="-100"
    unicode-range="U+0078-E613"
  />
<missing-glyph horiz-adv-x="374" 
d="M34 0v682h272v-682h-272zM68 34h204v614h-204v-614z" />
    <glyph glyph-name=".notdef" horiz-adv-x="374" 
d="M34 0v682h272v-682h-272zM68 34h204v614h-204v-614z" />
    <glyph glyph-name=".null" horiz-adv-x="0" 
 />
    <glyph glyph-name="nonmarkingreturn" horiz-adv-x="341" 
 />
    <glyph glyph-name="x" unicode="x" horiz-adv-x="1001" 
d="M281 543q-27 -1 -53 -1h-83q-18 0 -36.5 -6t-32.5 -18.5t-23 -32t-9 -45.5v-76h912v41q0 16 -0.5 30t-0.5 18q0 13 -5 29t-17 29.5t-31.5 22.5t-49.5 9h-133v-97h-438v97zM955 310v-52q0 -23 0.5 -52t0.5 -58t-10.5 -47.5t-26 -30t-33 -16t-31.5 -4.5q-14 -1 -29.5 -0.5
t-29.5 0.5h-32l-45 128h-439l-44 -128h-29h-34q-20 0 -45 1q-25 0 -41 9.5t-25.5 23t-13.5 29.5t-4 30v167h911zM163 247q-12 0 -21 -8.5t-9 -21.5t9 -21.5t21 -8.5q13 0 22 8.5t9 21.5t-9 21.5t-22 8.5zM316 123q-8 -26 -14 -48q-5 -19 -10.5 -37t-7.5 -25t-3 -15t1 -14.5
t9.5 -10.5t21.5 -4h37h67h81h80h64h36q23 0 34 12t2 38q-5 13 -9.5 30.5t-9.5 34.5q-5 19 -11 39h-368zM336 498v228q0 11 2.5 23t10 21.5t20.5 15.5t34 6h188q31 0 51.5 -14.5t20.5 -52.5v-227h-327z" />
    <glyph glyph-name="uniE600" unicode="&#xe600;" 
d="M512 684q-159 0 -271.5 -112.5t-112.5 -271.5t112.5 -271.5t271.5 -112.5t271.5 112.5t112.5 271.5t-112.5 271.5t-271.5 112.5zM704 172l-64 -64l-128 128l-128 -128l-64 64l128 128l-128 128l64 64l128 -128l128 128l64 -64l-128 -128z" />
    <glyph glyph-name="uniE601" unicode="&#xe601;" 
d="M512 748q-91 0 -174 -35.5t-143 -95.5t-95.5 -143t-35.5 -174t35.5 -174t95.5 -143t143 -95.5t174 -35.5q73 0 141.5 22.5t123.5 64t96.5 96.5t64 123.5t22.5 141.5q0 171 -113 298q-110 123 -272 146q-32 4 -63 4zM730 259q0 -4 -4 -8q-1 -1 -3.5 -2t-4.5 -1h-412
q-2 0 -4.5 1t-3.5 2q-4 4 -4 8v82q0 2 1 4t3 4q1 1 2 1l4 2h2h412q2 0 3 -0.5t2.5 -1t2.5 -1.5l4 -8v-82z" />
    <glyph glyph-name="uniE602" unicode="&#xe602;" 
d="M512 684q-159 0 -271.5 -112.5t-112.5 -271.5t112.5 -271.5t271.5 -112.5t271.5 112.5t112.5 271.5t-112.5 271.5t-271.5 112.5zM448 108l-192 192l64 64l128 -128l256 256l64 -64z" />
    <glyph glyph-name="uniE603" unicode="&#xe603;" 
d="M512 681q77 0 147.5 -30.5t121.5 -81.5t81.5 -121.5t30.5 -147.5q0 -103 -51 -191t-139 -139t-191 -51t-191 51t-139 139t-51 191q0 77 30.5 147.5t81.5 121.5t121.5 81.5t147.5 30.5zM512 751q-92 0 -175.5 -35.5t-144 -96t-96 -144t-35.5 -175.5q0 -74 22.5 -142.5
t64.5 -124t97.5 -97.5t124 -64.5t142.5 -22.5q92 0 175.5 35.5t144 96t96 144t35.5 175.5q0 41 -7 81t-21 76.5t-33.5 70.5t-44.5 63t-54 54t-63 44.5t-70.5 33.5t-76.5 21t-81 7zM861 324q0 -22 -11.5 -39t-33.5 -17q-12 0 -21.5 4t-16.5 11.5t-11 18.5t-4 24v34
q0 16 -0.5 25t-1 15t-0.5 8v2q2 -1 5.5 -2t13.5 -5t19.5 -8.5t21 -12t20 -16t14 -19.5t6.5 -23zM199 288q-1 -22 10.5 -38.5t33.5 -16.5q24 0 38.5 15.5t14.5 42.5l2 84q-1 -1 -3 -1.5t-9 -3t-13.5 -5t-15 -7.5t-16.5 -9.5t-16 -11.5t-13.5 -14t-9 -16t-3.5 -19zM759 441
q0 -10 -17 -10t-46.5 5t-42.5 5q-8 0 -16.5 -1.5t-15 -3t-13 -3.5t-11 -2.5t-8 -0.5t-5.5 3t-2 8q0 21 22 45.5t49 24.5q11 0 25.5 -5t28.5 -13t25.5 -17.5t19 -19t7.5 -15.5zM265 441q0 -6 7 -8.5t19.5 -1.5t25.5 3.5t28.5 4.5t25.5 2t22 -2.5t20 -5t15 -3.5t10.5 1.5
t3.5 9.5q0 13 -9.5 29t-26.5 28.5t-35 12.5q-28 0 -67 -26.5t-39 -43.5zM304 90q0 37 13.5 73.5t38.5 66.5t65.5 48.5t90.5 18.5q66 0 114.5 -32t71 -78t22.5 -97q-1 0 -3.5 1.5t-12.5 5t-21 7t-29.5 7.5t-38.5 7t-47 5t-56 2t-56 -2t-47 -5t-38 -7t-30 -7.5t-20.5 -7
t-12.5 -4.5z" />
    <glyph glyph-name="uniE604" unicode="&#xe604;" 
d="M512 681q103 0 191 -51t139 -139t51 -191q0 -77 -30.5 -147.5t-81.5 -121.5t-121.5 -81.5t-147.5 -30.5q-103 0 -191 51t-139 139t-51 191q0 150 103 260q100 107 246 119q17 2 32 2zM512 751q-92 0 -175.5 -35.5t-144 -96t-96 -144t-35.5 -175.5t35.5 -175.5t96 -144
t144 -96t175.5 -35.5q61 0 119.5 16t108 45t91.5 71t71 91.5t45 108t16 119.5q0 74 -22.5 142.5t-64.5 124t-97.5 97.5t-124 64.5t-142.5 22.5zM759 370q0 -9 -18.5 -9t-41.5 4q-33 5 -46 5q-10 0 -22 -2t-20 -4.5t-15 -4t-10.5 1t-3.5 9.5q0 21 22 46t49 25q28 0 67 -26.5
t39 -44.5zM265 370q0 -4 4 -6.5t10.5 -3t15 0.5t19 2.5t20 3t20 2.5t17.5 1q10 0 22 -2t20 -4.5t15 -4t10.5 1t3.5 9.5q0 13 -9.5 29.5t-26.5 29t-35 12.5q-28 0 -67 -26.5t-39 -44.5zM753 230q0 -35 -9.5 -69t-29.5 -65t-48 -55t-68 -38t-86 -14q-58 0 -105 21.5t-76 56.5
t-44.5 77t-15.5 86q9 -5 26.5 -12t79.5 -18t135 -11q46 0 87.5 4t68.5 10t47 12t29 10z" />
    <glyph glyph-name="uniE605" unicode="&#xe605;" 
d="M512 681q103 0 191 -51t139 -139t51 -191t-51 -191t-139 -139t-191 -51t-191 51t-139 139t-51 191q0 77 30.5 147.5t81.5 121.5t121.5 81.5t147.5 30.5zM512 751q-92 0 -175.5 -35.5t-144 -96t-96 -144t-35.5 -175.5q0 -74 22.5 -142.5t64.5 -124t97.5 -97.5t124 -64.5
t142.5 -22.5q92 0 175.5 35.5t144 96t96 144t35.5 175.5q0 74 -22.5 142.5t-64.5 124t-97.5 97.5t-124 64.5t-142.5 22.5zM512 109q-140 0 -255 82q43 -61 110 -96.5t145 -35.5q52 0 100.5 16.5t87.5 46t67 69.5q-115 -82 -255 -82zM442 370.5q0 -29.5 -21 -50t-50 -20.5
t-49.5 20.5t-20.5 50t20.5 50t49.5 20.5t50 -20.5t21 -50zM723 370q0 -19 -9.5 -35t-25.5 -25.5t-35 -9.5q-29 0 -50 20.5t-21 49.5q0 20 9.5 36t26 25.5t35.5 9.5q14 0 27 -5.5t22.5 -15t15 -22.5t5.5 -28z" />
    <glyph glyph-name="uniE606" unicode="&#xe606;" 
d="M512 486q-77 0 -131.5 -54.5t-54.5 -131.5t54.5 -131.5t131.5 -54.5t131.5 54.5t54.5 131.5t-54.5 131.5t-131.5 54.5zM476 408q33 -23 60 -46l-5 -6q-24 22 -59 48zM437 332l6 -2q-4 -22 -11.5 -43.5t-16.5 -35.5l-6 4q18 25 28 77zM549 201h-52q-9 0 -14 1.5t-7.5 6
t-2.5 12.5v32q-5 -5 -11 -8.5t-12 -7.5t-12 -7l-12 -8q-6 -3 -13 -6q0 2 -1 4l-3 2q33 15 64 39v88h7v-83q67 53 103 130l7 -4q-42 -81 -110 -134v-37q0 -5 1 -8t5 -4t11 -1h52q8 0 11.5 4.5t5 14t2.5 31.5q4 -3 7 -4q-2 -32 -6.5 -42.5t-19.5 -10.5zM610 250q-11 37 -40 79
l6 3q13 -19 24 -41t16 -38z" />
    <glyph glyph-name="uniE607" unicode="&#xe607;" 
d="M131 -130v839q0 13 -9.5 22.5t-22.5 9.5q-9 0 -16.5 -4.5t-11.5 -12t-4 -15.5v-839q0 -9 4 -16t11.5 -11.5t16.5 -4.5q13 0 22.5 9.5t9.5 22.5zM685 112q0 8 -5.5 13.5t-13.5 5.5h-465q-8 0 -14 -5.5t-6 -13.5v-127q0 -8 6 -13.5t14 -5.5h465q4 0 7.5 1.5t6 4t4 6
t1.5 7.5v127zM955 355q0 3 -1 6t-2.5 5.5t-4 4t-5.5 2.5t-6 1h-735q-3 0 -5.5 -0.5t-4.5 -1.5l-4 -4q-2 -1 -3 -3t-2 -4.5t-1 -5.5v-127q0 -3 1 -6t3 -5t4.5 -4t5 -3t6.5 -1h735q5 0 9.5 2.5t7 7t2.5 9.5v127zM181 598v-126q0 -8 6 -13.5t14 -5.5h611q4 0 7.5 1.5t6 4t4 6
t1.5 7.5v126q0 8 -5.5 14t-13.5 6h-611q-8 0 -14 -6t-6 -14z" />
    <glyph glyph-name="uniE608" unicode="&#xe608;" 
d="M842 456q33 25 51 64t18 83q0 91 -71 149q-54 43 -121 43q-41 0 -78.5 -16.5t-64.5 -45.5t-39 -66q13 -16 23 -35.5t17 -40t10.5 -42.5t3.5 -44q0 -75 -39 -138q6 -6 8.5 -9t5.5 -7t5 -9q63 71 138 64q57 -2 106 -43.5t78.5 -105.5t37.5 -136h-256q7 -44 15 -74h314
q3 0 5 1t3 2l2 4q1 1 1.5 3.5t1 4.5t0.5 5v5v5v5q-1 17 -2 30t-5.5 46t-11.5 59.5t-20 63.5t-30.5 66t-45 58.5t-60.5 50.5zM719 495q-48 0 -80.5 32.5t-32.5 80.5t32.5 80.5t80.5 32.5t80.5 -32.5t32.5 -80.5q0 -16 -4 -30.5t-11.5 -27t-18.5 -23t-23.5 -17.5t-26.5 -11
t-29 -4zM449 357q33 26 51 64.5t18 83.5q0 80 -57 136t-135 56q-38 0 -73.5 -16t-61.5 -41.5t-41.5 -61t-15.5 -73.5q0 -41 17 -79t47 -64q-51 -28 -89 -77t-58.5 -106t-30 -111t-9.5 -104q0 -2 0.5 -4.5t4 -6.5t10.5 -4h595q4 0 6.5 1.5t3 5.5t0.5 7t-0.5 9.5t-0.5 11.5v9
q-29 272 -181 364zM326 618q48 0 80.5 -33t32.5 -80.5t-32.5 -80.5t-80.5 -33t-80.5 33t-32.5 80.5t32.5 80.5t80.5 33zM85 28q23 127 85.5 206t145.5 79q57 -2 106 -44t78.5 -105.5t37.5 -135.5h-453z" />
    <glyph glyph-name="uniE609" unicode="&#xe609;" 
d="M920 473q-43 0 -70 5.5t-38.5 12.5t-35 13.5t-59.5 6.5q-35 1 -66.5 -9t-50.5 -22t-49 -21t-64 -7q-24 2 -42.5 6.5t-28 11t-19.5 14.5l-18 13q-8 6 -21.5 10t-31.5 4q-32 -1 -53.5 -8t-33.5 -16.5t-24 -19.5t-34.5 -16t-56.5 -6q-29 1 -46.5 14.5t-26.5 30.5l136 194
h637l149 -197q-20 -14 -53 -14zM126 412q32 -1 58.5 8.5t41.5 21.5t40.5 22t56.5 9q29 0 50 -8t31 -18.5t31.5 -19.5t52.5 -10q45 0 88.5 17.5t79.5 33.5t67 16h11q10 -1 17 -1.5t18 -1.5t20 -3.5t16 -5.5q26 -21 65.5 -25t66 1t52.5 14q4 -6 7.5 -13t6 -14t4.5 -14t3 -15
t1 -16q0 -54 -38 -92t-91 -38q-43 0 -77 25.5t-47 65.5q-14 -47 -56 -73h-134q-14 9 -26 21t-20 27t-12 32q-14 -52 -61 -80h-129q-14 8 -25.5 19t-20 25t-13.5 29q-12 -40 -46 -66t-77 -26q-54 0 -92 38t-38 92q0 38 21 70q26 -45 97 -47zM144 258v1h14zM276 108l140 138
l28 -28l-141 -138zM525 207l-192 -207l-28 27l192 206zM222 -34h563v291l77 -58v-323h-718v323l78 59v-292z" />
    <glyph glyph-name="uniE60A" unicode="&#xe60a;" horiz-adv-x="1160" 
d="M1082 607l-282 -282l24 -24l282 283l54 -54l-310 -309l-26 -27l-27 27l-61 61l-83 -84l300 -293l-107 -108l-301 294l-300 -303l-107 107l300 303l-58 59q-67 -27 -147 -6.5t-142 82.5q-81 80 -90 185t58.5 173t172.5 59t186 -90q64 -64 83.5 -147.5t-11.5 -151.5l55 -55
l84 83l-61 61l-27 26l27 27l309 309l53 -54l-282 -282l24 -23l282 282l54 -54l-282 -282l20 -21l282 282z" />
    <glyph glyph-name="uniE60B" unicode="&#xe60b;" 
d="M512 748q-91 0 -174 -35.5t-143 -95.5t-95.5 -143t-35.5 -174q0 -46 9 -90.5t26 -84t41.5 -76t54.5 -66.5t66.5 -54.5t76 -41.5t84 -26t90.5 -9q91 0 174 35.5t143 95.5t95.5 143t35.5 174t-35.5 174t-95.5 143t-143 95.5t-174 35.5zM512 -46q-70 0 -134 27.5t-110.5 74
t-74 110.5t-27.5 134q0 47 12.5 92t35 82.5t54.5 69.5t69.5 54.5t82.5 35t92 12.5q94 0 173.5 -46.5t126 -126t46.5 -173.5q0 -140 -98 -241q-97 -99 -235 -104q-7 -1 -13 -1zM720 353h-416q-5 0 -8 -4q-2 -1 -3 -3.5t-1 -4.5v-82q1 -5 4 -8q3 -4 8 -4h416q5 0 8 4l4 8v82
q0 5 -4 8q-1 2 -3.5 3t-4.5 1z" />
    <glyph glyph-name="uniE60C" unicode="&#xe60c;" 
d="M792 637h-84v56h-75q-19 25 -51 40.5t-70 15.5t-70 -15.5t-51 -40.5h-75v-56h-84q-46 0 -79 -33t-33 -79v-560q0 -12 2.5 -23t6.5 -21t10 -19t13.5 -16.5t16.5 -13.5t19 -10.5t21.5 -6.5t22.5 -2h560q46 0 79 32.5t33 79.5v560q0 46 -33 79t-79 33zM372 637h62
q0 11 6.5 21.5t16.5 18t24.5 12t30.5 4.5t30.5 -4.5t24.5 -12t16.5 -18t6.5 -21.5h62v-112h-280v112zM848 -35q0 -12 -4.5 -22.5t-12 -18t-18 -11.5t-21.5 -4h-560q-23 0 -39.5 16t-16.5 40v560q0 23 16.5 39.5t39.5 16.5h84v-112h392v112h84q23 0 39.5 -16.5t16.5 -39.5
v-560zM708 77h-392q-8 0 -14 -4t-10 -10.5t-4 -13.5q0 -12 8 -20t20 -8h392q12 0 20 8t8 20q0 5 -2 10.5t-6 9t-9 6t-11 2.5zM708 357h-392q-6 0 -11 -2.5t-9 -6t-6 -9t-2 -10.5q0 -12 8 -20t20 -8h392q8 0 14 3.5t10 10t4 14.5q0 11 -8 19.5t-20 8.5zM708 217h-392
q-12 0 -20 -8.5t-8 -20t8 -19.5t20 -8h392q12 0 20 8t8 19.5t-8 20t-20 8.5z" />
    <glyph glyph-name="uniE60D" unicode="&#xe60d;" 
d="M501 330zM380 -15l-192 -36l39 188zM680 591l-68 -69l153 -153l68 69zM261 172l153 -153l317 316l-153 153z" />
    <glyph glyph-name="uniE60E" unicode="&#xe60e;" 
d="M512 244v392q-107 0 -197 -52.5t-142.5 -142.5t-52.5 -196.5t52.5 -197t142.5 -142.5t197 -52q79 0 152 31t125 83.5t83 125t31 151.5q0 24 -2.5 47t-8 45t-13 42.5t-17.5 40.5zM918 531q-24 48 -60.5 88t-81 68.5t-98.5 44.5t-110 16v-392z" />
    <glyph glyph-name="uniE60F" unicode="&#xe60f;" 
d="M952 634q4 -9 6 -21q1 -2 1.5 -4.5t0.5 -4.5t0.5 -4t0.5 -4v-4v-5q0 -13 -5 -26q-3 -7 -7 -13.5t-9 -12.5q-13 -13 -22 -21l-18 -16l-14 -15l-191 191q13 12 29 27q17 16 28 25q7 5 14.5 9t14.5 7q16 4 30.5 3.5t28.5 -4.5q7 -2 13 -4t11 -5q7 -4 14.5 -9.5t16 -13
t16.5 -16.5q7 -7 13 -14.5t11 -14.5t9 -14.5t8 -15.5v0zM157 136q3 4 29 29q21 22 56 57l74 74l83 83l219 219l191 -191l-219 -220l-82 -82q-38 -37 -73 -73q-34 -35 -55 -55q-21 -21 -25 -24q-10 -10 -23 -20q-4 -2 -7.5 -4.5t-6.5 -4.5t-6.5 -4t-7.5 -3q-14 -7 -42 -17
q-28 -11 -57 -20q-30 -10 -58 -17q-9 -3 -16 -4.5t-13.5 -3t-10.5 -1.5q-27 -3 -36.5 8t-5.5 38q2 13 10 41q7 23 16 56q9 31 17 54q8 24 13 33q7 15 14.5 26.5t21.5 25.5v0zM498 -88q0 13 9.5 22.5t22.5 9.5h28q8 0 15.5 -4.5t12 -12t4.5 -15.5v-27q0 -13 -9.5 -22.5
t-22.5 -9.5h-28q-13 0 -22.5 9.5t-9.5 22.5v27zM684 -88q0 13 9 22.5t23 9.5h27q6 0 12 -2.5t10.5 -7t7 -10.5t2.5 -12v-27q0 -7 -2.5 -12.5t-7 -10t-10.5 -7t-12 -2.5h-27q-9 0 -16.5 4.5t-11.5 11.5t-4 16v27zM870 -88q0 8 4 15.5t11.5 12t16.5 4.5h27q9 0 16 -4.5
t11.5 -12t4.5 -15.5v-27q0 -13 -9.5 -22.5t-22.5 -9.5h-27q-13 0 -22.5 9.5t-9.5 22.5v27zM870 -56z" />
    <glyph glyph-name="uniE610" unicode="&#xe610;" 
d="M966 590v44q0 37 -24 63t-61 26h-750q-24 -2 -42 -9.5t-29 -23.5t-11 -39v-549q1 -36 27 -60.5t61 -24.5h47h173q44 0 44 33q0 18 -12.5 27.5t-31.5 9.5h-189q-17 1 -26.5 4.5t-15 11t-7.5 20.5v493q2 13 7.5 20t15.5 10.5t26 4.5l728 1v-1h-57q32 -1 43.5 -8.5
t13.5 -33.5v-480q-2 -25 -12 -33.5t-39 -9.5h-313h-2h-1q-6 0 -12 -2q-1 0 -4 -2q-9 -3 -15 -11l-178 -177q-9 -8 -13.5 -19t-3 -22.5t9.5 -19.5q14 -13 31.5 -10t31.5 17l178 177h280h47q18 0 34 7t27 19t18 28.5t7 34.5v44v440h-1zM896 86h-24l24 1v-1zM839 651h-30h30z
M260 369q0 -22 15.5 -37.5t37.5 -15.5q11 0 21 4t17 11t11 17t4 21q0 22 -15.5 37.5t-37.5 15.5q-11 0 -20.5 -4.5t-16.5 -11.5t-11.5 -16.5t-4.5 -20.5zM560 369q0 22 -15.5 37.5t-37.5 15.5t-37.5 -15.5t-15.5 -37.5t15.5 -37.5t37.5 -15.5q15 0 27 7t19 19t7 27zM755 369
q0 22 -15.5 37.5t-37.5 15.5q-8 0 -14.5 -2t-12.5 -5.5t-11 -8.5t-8.5 -10.5t-5 -12.5t-1.5 -14q0 -22 15.5 -37.5t37.5 -15.5q10 0 20 4t17 11t11.5 17t4.5 21z" />
    <glyph glyph-name="uniE611" unicode="&#xe611;" 
d="M710 447h-17v-428h-56v428h-94v-428h-56v428h-94v-428h-56v428h-36h-77v-448q0 -30 22.5 -52t54.5 -22h409q16 0 30 6t24.5 16t16.5 23.5t6 28.5v448q0 1 -9 1t-30.5 -0.5t-37.5 -0.5zM824 581h-168v46q0 13 -13.5 24.5t-30.5 17.5t-31 6h-150q-24 0 -49.5 -14.5
t-25.5 -33.5v-46h-169q-15 0 -26.5 -11t-11.5 -26.5t11.5 -26.5t26.5 -11h637q10 0 19 5t14 14t5 19q0 4 -1 8.5t-3 8t-4.5 7t-6 6t-7 4t-8 2.5t-8.5 1zM581 581h-150v19h150v-19z" />
    <glyph glyph-name="uniE612" unicode="&#xe612;" 
d="M512 -150q-91 0 -174.5 35.5t-144 96t-96 144t-35.5 174.5q0 61 16 119.5t45 107.5t71 91t91 71t107.5 45t119.5 16q91 0 174.5 -35.5t144 -96t96 -144t35.5 -174.5t-35.5 -174.5t-96 -144t-144 -96t-174.5 -35.5zM512 670q-60 0 -116.5 -18.5t-102 -53t-80 -80t-53 -102
t-18.5 -116.5q0 -34 6 -66.5t17.5 -62.5t27.5 -57.5t36.5 -51.5t44.5 -44.5t51.5 -36.5t57.5 -27.5t62.5 -17.5t66.5 -6q50 0 98 13.5t88.5 37t75 58t58 75t37 88.5t13.5 98q0 75 -29.5 143.5t-79 118t-118 79t-143.5 29.5zM775 418l-313 -303q-6 -6 -14 -9q-7 -6 -16 -8
t-17.5 -1.5t-16.5 4t-15 10.5l-134 135q-15 14 -15 35t14.5 36t35.5 15t36 -15l101 -101l283 273q15 15 36 15t35.5 -15t14.5 -36t-15 -35z" />
    <glyph glyph-name="uniE613" unicode="&#xe613;" 
d="M677 607v62q0 16 -8.5 30.5t-24 22.5t-33.5 8h-198q-28 0 -47 -18t-19 -43v-62h-265v-61h99v-615q0 -25 19.5 -43t46.5 -18h530q27 0 46.5 18t19.5 43v615h99v61h-265zM413 669h198v-62h-198v62zM777 -69h-530v615h530v-615zM347 454h66v-430h-66v430zM479 454h66v-430
h-66v430zM611 454h66v-430h-66v430zM611 454z" />
  </font>
</defs>
</svg>
